<svg xmlns="http://www.w3.org/2000/svg" viewBox="0 0 275.43 150.34">
  <defs>
    <style>
      .cls-1{fill:#ececec}.cls-3,.cls-5{fill:none}.cls-10,.cls-12,.cls-3,.cls-4,.cls-5,.cls-7,.cls-8,.cls-9{stroke:#000}.cls-12,.cls-3,.cls-5,.cls-9{stroke-linecap:round}.cls-10,.cls-12,.cls-3,.cls-4,.cls-5,.cls-7,.cls-8,.cls-9{stroke-miterlimit:10}.cls-10,.cls-3,.cls-4,.cls-7,.cls-9{stroke-width:.53px}.cls-13,.cls-4,.cls-9{fill:#fff}.cls-5{stroke-width:.28px}.cls-10,.cls-6{fill:#ddb2ff}.cls-8{stroke-width:.47px}.cls-12{stroke-width:.37px}
    </style>
  </defs>
  <g>
    <path d="M100.42 18C102.89 7.79 109 1.42 119.62.13a21.08 21.08 0 0121.95 14.07 42.91 42.91 0 014.58-1.84A15.39 15.39 0 01155 41.85a15.57 15.57 0 01-4.74.76q-26.91.07-53.82 0a12.62 12.62 0 113.52-24.74c.15.13.34.13.46.13zM146.3 87.37L21.23 125.43a24.73 24.73 0 01-20-2.5 2.6 2.6 0 01.67-4.73l136.31-36.86 8.18 3a1.57 1.57 0 01-.09 3.03z" class="cls-1"/>
    <ellipse cx="171.66" cy="136.08" fill="#ebe1fd" rx="91.71" ry="13.52"/>
    <path d="M219.81 134.69a5.42 5.42 0 014.79 1.31 4.3 4.3 0 001.48 1.15 3.68 3.68 0 001.77-.09 10.77 10.77 0 015.73.5 4 4 0 001.65.4 9.24 9.24 0 001.8-.65c1.46-.42 3 .51 4.48.45s3.07-1.2 4.65-.95c.62.1 1.2.41 1.82.5 2.1.3 1.82-2.21 6.1-1.23" class="cls-3"/>
    <path d="M237.37 13.94c-.73-2.15.95-4.44 2.93-5.54a5.83 5.83 0 014.44-.74 3.33 3.33 0 012.48 3.44A10.21 10.21 0 01255 6.52a8.42 8.42 0 017.76 4.25 7.16 7.16 0 01-1.45 8.52 4 4 0 013.62 6.3c2 .74 4.17 1.55 5.54 3.23s1.55 4.52-.2 5.8c1.73 0 3.78.24 4.62 1.75a3.37 3.37 0 01-.68 3.71 9.78 9.78 0 01-3.35 2.17" class="cls-4"/>
    <path d="M271.06 42.06c.4-.2 1.41 2.11.54 2.79-1.19.95 1.38 2.8 1 4.28a4.9 4.9 0 01-2.89 3.31c-.32.13-.7.25-.85.56s.06.88.26 1.28a4.6 4.6 0 01-4.34 6.65c-.84 1.4.38 3.46-1.82 4.53a3.53 3.53 0 01-2.33.23c-1.24-.28-2.95-.85-3.26-1.86h-.07a5.37 5.37 0 01-7.09-.84 11.68 11.68 0 01-4.47.29 4 4 0 01-3.26-2.75 4.88 4.88 0 01-6.66-.54c-1.8.82-4.08-.92-5.83 0-.82.43-1.35 1.4-2.26 1.58s-1.83-.44-2.62 0a3.29 3.29 0 00-.91 1 3.71 3.71 0 01-5.72-.3c-1.22 3.94-6.24 6.05-10.05 4.46-2.34-1-4-3.91-3-6.22v-.06a6.15 6.15 0 01-5.27-3.54 5.17 5.17 0 011.37-5.66c-1.61-.49-3.31-.17-4.49-1.38a3.77 3.77 0 01-.36-3.15c.21-.3.71-1 1.06-1.08 1.05-.35.64-.41 1.69-.76-2.23-.25-3.06-.83-4.9-2.13a6.46 6.46 0 01-2.61-3.19 6.68 6.68 0 01.24-3.9 13 13 0 014.47-6.66 9.37 9.37 0 017.71-1.72 7.41 7.41 0 011.48-6.28c1.51-1.62 4.35-2.05 5.93-.51.11-2.23.66-4.6 2.34-6.07s4.73-1.46 5.83.48c.43-4 3.53-7.9 7.57-8.4s10 3.29 9.72 7.35" class="cls-4"/>
    <path d="M229 44c.21-1.53.45-3.95.58-3.71a8.65 8.65 0 002.63 2.62" class="cls-5"/>
    <circle cx="229.07" cy="44.82" r="1.11" class="cls-6"/>
    <circle cx="232.94" cy="43.71" r="1.11" class="cls-6"/>
    <path d="M230.12 26.92c.86-1.27 2.14-3.64 2.15-3.37a10.24 10.24 0 001.21 3.81" class="cls-5"/>
    <circle cx="229.83" cy="27.68" r="1.11" class="cls-6"/>
    <circle cx="233.79" cy="28.39" r="1.11" class="cls-6"/>
    <path d="M251.57 53.11c.21-1.53.41-4 .54-3.79a9.24 9.24 0 002.66 2.7" class="cls-5"/>
    <circle cx="251.64" cy="53.92" r="1.11" class="cls-6"/>
    <circle cx="255.51" cy="52.81" r="1.11" class="cls-6"/>
    <path d="M211.19 29.54a25.75 25.75 0 012.63-2.77 9.25 9.25 0 00.61 3.74" class="cls-5"/>
    <circle cx="210.78" cy="30.24" r="1.11" class="cls-6"/>
    <circle cx="214.57" cy="31.59" r="1.11" class="cls-6"/>
    <path d="M255.87 38.9c.5-1.45 1.18-3.86 1.27-3.6a9 9 0 002.09 3.16" class="cls-5"/>
    <circle cx="255.78" cy="39.71" r="1.11" class="cls-6"/>
    <circle cx="259.8" cy="39.38" r="1.11" class="cls-6"/>
    <path d="M242.36 21.64c.69-1.32 1.63-2.55 1.84-4h.08a23.36 23.36 0 001.47 4.08" class="cls-5"/>
    <circle cx="242.16" cy="22.43" r="1.11" class="cls-6"/>
    <circle cx="246.17" cy="22.69" r="1.11" class="cls-6"/>
    <path d="M257 35.28a2.63 2.63 0 011.91-2 2.71 2.71 0 01-1.91 2M213.38 27.11a1.57 1.57 0 01-.8-1 2.73 2.73 0 01-.05-1.27l.39.36a1.53 1.53 0 01.39.45 3.55 3.55 0 01.1 1.27M215.44 53.57c.79-1.31 1.89-2.53 2.12-4a1.19 1.19 0 00-.14.79 9.42 9.42 0 001.39 3.53" class="cls-5"/>
    <circle cx="215.18" cy="54.35" r="1.11" class="cls-6"/>
    <circle cx="219.18" cy="54.86" r="1.11" class="cls-6"/>
    <path d="M217.35 50.23A2.64 2.64 0 01219 48.1a5.18 5.18 0 01-.67 1.5 1.16 1.16 0 01-1 .67M232.18 23.73a2.3 2.3 0 01-1-.12 1.49 1.49 0 01-.79-.65 2.12 2.12 0 011.87.57M229.5 40.21a3.42 3.42 0 00-2.59.13 2.45 2.45 0 002.57-.05M244.2 18.29a2.16 2.16 0 01.77-.95 3.19 3.19 0 011.14-.48h.06v.07a1.75 1.75 0 01-.75 1.11 2.47 2.47 0 01-1.29.39M252 49.36a2.17 2.17 0 00-.64-1.37 2.37 2.37 0 00-1.21-.41h-.1c-.07 0-.05.14 0 .21a2.43 2.43 0 002 1.56" class="cls-5"/>
    <path d="M152.77 44.31h20.06a1.63 1.63 0 001.64-1.55c.53-16.54-22.11-20.17-23.34-.17a1.63 1.63 0 001.64 1.72z" class="cls-7"/>
    <path d="M171.19 124.33h2.82v11.99h-2.82z" class="cls-8" transform="rotate(172.73 172.608 130.32)"/>
    <path d="M152.49 123.29h2.82v11.99h-2.82z" class="cls-8" transform="rotate(7.27 154.017 129.375)"/>
    <path d="M171.82 79.57l6.24 48.07a.1.1 0 01-.07.1l-9.7 1.36a.09.09 0 01-.11-.07L162.75 86a.09.09 0 00-.17 0l-4.73 43a.09.09 0 01-.11.08l-9.74-1.34a.11.11 0 01-.06-.1l6.22-48.07z" class="cls-4"/>
    <path d="M177.21 76c4.92-4.23 12.53-28-14-30.26a2.41 2.41 0 00-.38 0C136.22 48 144 71.82 148.87 76" class="cls-7"/>
    <ellipse cx="163.01" cy="39.94" class="cls-4" rx="7.97" ry="7.03" transform="rotate(-86.05 163.011 39.937)"/>
    <path d="M159.62 40.84a1.71 1.71 0 002.76.21M164.25 40.84a1.71 1.71 0 002.76.21M161.62 45.11a2 2 0 012.57 0M159.1 39.48a4.85 4.85 0 002.29-.59M166.23 38.77a3.68 3.68 0 002 1" class="cls-3"/>
    <path d="M137.2 142.17a63.1 63.1 0 0016.08-.35c1.11-.11 2.37-.62 1.83-4.12a9 9 0 01.1-3.23.56.56 0 00-.47-.62 5 5 0 01-3-1.25c-.84-.85-2.41 2.13-2.41 2.13-1.14 1.61-6.76 1.63-6.76 1.63-4.48.65-6.67 4.76-4.87 7a.93.93 0 00.48.32c2.24.61 13.27 0 15.82-.53a.8.8 0 00.59-.59l.42-1.89M140.24 137.17a3 3 0 01-2.9 4.61M142.62 136.55c.28 2.78 1 2.33.92-.1M144.44 136.44c.39 2.77 1.07 2.3.92-.13M146 136.15c.67 2.71 1.3 2.17.9-.23" class="cls-4"/>
    <path d="M149.22 135.12c2.69 2.53 5.14.78.14-.39-.88-5-3.66-2.81-.43.41l-1.81-.37M149.22 135.12l-.2 1.7" class="cls-9"/>
    <path d="M189.54 142.17a63.16 63.16 0 01-16.09-.35c-1.11-.11-2.37-.62-1.82-4.12a9 9 0 00-.1-3.23.56.56 0 01.46-.62 5.09 5.09 0 003-1.25c.83-.85 2.4 2.13 2.4 2.13 1.15 1.61 6.77 1.63 6.77 1.63 4.48.65 6.66 4.76 4.86 7a.91.91 0 01-.47.32c-2.24.61-13.28 0-15.82-.53a.8.8 0 01-.6-.59l-.42-1.89M186.49 137.17a3 3 0 002.9 4.61M184.12 136.55c-.29 2.78-1 2.33-.93-.1M182.3 136.44c-.39 2.77-1.08 2.3-.92-.13M180.74 136.15c-.67 2.71-1.31 2.17-.91-.23" class="cls-4"/>
    <path d="M177.52 135.12c-2.7 2.53-5.14.78-.15-.39.89-5 3.66-2.81.43.41l1.82-.37M177.52 135.12l.2 1.7" class="cls-9"/>
    <path d="M158.72 33.11l-.44 3.11a.91.91 0 00.9 1H167a.91.91 0 00.9-1l-.44-3.11a.91.91 0 00-.9-.78h-6.88a.92.92 0 00-.96.78z" class="cls-7"/>
    <circle cx="126.4" cy="149.28" r="1.06" class="cls-6"/>
    <circle cx="165.26" cy="142.59" r="1" class="cls-6"/>
    <circle cx="195.23" cy="147.56" r="1" class="cls-6"/>
    <circle cx="159.38" cy="146.26" r="1" class="cls-6"/>
    <circle cx="258.9" cy="141.59" r="1" class="cls-6"/>
    <path d="M177.48 82h-29.16a.14.14 0 01-.14-.17l2.41-15.17a.15.15 0 01.14-.13h28.55a.15.15 0 01.15.17l-1.81 15.17a.14.14 0 01-.14.13zM152 66.4l-3.65-5.18a.23.23 0 01.21-.33h32.53a.2.2 0 01.19.14l-1.89 5.21a.2.2 0 01-.19.27h-27a.21.21 0 01-.2-.11z" class="cls-4"/>
    <path d="M181 69.17l-3.26 12.16a.17.17 0 01-.32 0l-.81-5 4.53-15.21a.07.07 0 01.14 0l-.28 8z" class="cls-10"/>
    <path fill="none" stroke="#ddb2ff" stroke-miterlimit="10" stroke-width=".71" d="M145.09 70.76c-.23-4.21.16-10.15 2.69-13.52s7.21-5.09 11.53-4.7a20.21 20.21 0 0111.87 4.82c3.19 2.94 6.34 8.46 7.75 13.4"/>
    <path d="M143.73 73.87L147.45 63" class="cls-10"/>
    <path d="M152 66.51l-3.81 15.11a.1.1 0 01-.19 0l-5-5.08a.42.42 0 01-.1-.45L148.13 61h.07z" class="cls-4"/>
    <path d="M148.1 81.84l-5.1-5.18a.22.22 0 01.21-.3h33.21a.24.24 0 01.21.14l.87 5.18a.22.22 0 01-.2.3h-29a.2.2 0 01-.2-.14z" class="cls-10"/>
    <rect width="2.82" height="6.35" x="165.13" y="78.16" class="cls-4" rx="1.41"/>
    <rect width="2.82" height="6.35" x="167.95" y="78.16" class="cls-4" rx="1.41"/>
    <rect width="2.82" height="6.35" x="170.77" y="78.16" class="cls-4" rx="1.41"/>
    <rect width="2.82" height="6.35" x="152.44" y="78.16" class="cls-4" rx="1.41"/>
    <rect width="2.82" height="6.35" x="155.26" y="78.16" class="cls-4" rx="1.41"/>
    <rect width="2.82" height="6.35" x="158.08" y="78.16" class="cls-4" rx="1.41"/>
    <path d="M96.84 121.66l1.4-1.77a.28.28 0 01.36 0l3.55 2.45a.26.26 0 01-.05.46l-1.74.7" class="cls-12"/>
    <path d="M105.61 129.87a3.92 3.92 0 011.88-1.89 4.49 4.49 0 001.36-.59 1 1 0 00.25-1.32 1 1 0 00-1.11-.17c-.37.14-.69.4-1 .57l1.14-.63a1.27 1.27 0 00.39-.3.68.68 0 00-.13-.91.92.92 0 00-1-.1c-.5.23-.75.8-1.2 1.11a3.13 3.13 0 01.83-.79.94.94 0 00.4-1 .74.74 0 00-.78-.39 1.56 1.56 0 00-.82.43c-1.15 1-1.83 3.22-2.23 4.69" class="cls-13"/>
    <path d="M105.76 130a3.72 3.72 0 011.52-1.69c.66-.37 1.53-.37 2-1.08a1 1 0 00-.34-1.45c-.75-.31-1.42.29-2.05.6l.17.29.89-.5a2.1 2.1 0 00.68-.46.87.87 0 00-.1-1.12 1.09 1.09 0 00-1.24-.13c-.48.25-.73.77-1.16 1.09l.23.22c.36-.6 1.73-1.12 1.2-2s-1.53-.24-2 .25a10.38 10.38 0 00-2.1 4.59.17.17 0 00.32.09 13.22 13.22 0 011.52-3.83c.33-.49 1.09-1.49 1.79-1.1.51.29.08.86-.23 1.11a3.21 3.21 0 00-.79.77c-.08.13.09.33.23.22.52-.38 1-1.41 1.78-1.13a.55.55 0 01.38.5c0 .26-.18.4-.38.52-.39.23-.79.44-1.19.66-.19.11 0 .38.17.29.5-.26 1.34-1 1.91-.49a.71.71 0 010 .92 1.7 1.7 0 01-.92.58 3.86 3.86 0 00-2.54 2.16c-.09.19.2.36.29.16z"/>
    <path d="M120.15 134.79a7.1 7.1 0 005.63-1.36 10.33 10.33 0 003.31-4.57c.34-.88.72-1.9 1.61-2.19.26-.08.57-.11.7-.34s-.27-.77-.69-.84a3.17 3.17 0 00-2.72 1.14 12.48 12.48 0 00-1.61 2.61 10.75 10.75 0 01-2.12 3 4.44 4.44 0 01-3.05 1.4" class="cls-13"/>
    <path d="M120.11 135a7.1 7.1 0 005.61-1.28 10.36 10.36 0 003.55-4.82 7 7 0 01.59-1.27 1.83 1.83 0 011.13-.81c.33-.1.65-.29.62-.67a.92.92 0 00-.64-.71 2.85 2.85 0 00-2.54.62 7.39 7.39 0 00-1.88 2.55c-1.09 2.09-2.66 4.83-5.34 4.87-.22 0-.22.34 0 .33a5.73 5.73 0 004.3-2.75 25.46 25.46 0 001.52-2.64 5.59 5.59 0 012-2.37 2.66 2.66 0 011.37-.37 1 1 0 01.77.28c.35.42-.26.52-.52.61a2.52 2.52 0 00-1.43 1.56 23.85 23.85 0 01-1.11 2.41 9.4 9.4 0 01-1.87 2.34 7 7 0 01-6.06 1.8.17.17 0 00-.08.32z"/>
    <path d="M112.49 128.15c-1.2.32-2.48-.11-3.72-.14a10.73 10.73 0 00-1.87.16 17.52 17.52 0 00-3.13.62 9.37 9.37 0 01-1 .31 5.11 5.11 0 01-1 .08c-.48 0-1-.13-1.46-.18 4.72-.16 4.92-2.13 4.67-4a.48.48 0 00-.55-.41 4.42 4.42 0 01-4.76-1.92c-1.27-1.72-7.08-1.55-6.47 3.88.29 2.52 2.94 9.16 6.77 10.65 7.11 2.77 22.67 2.45 23.09-9.5a9.88 9.88 0 00-.22-3.78.75.75 0 00-.66-.42c-.17 0-.3.17-.4.32a2.91 2.91 0 00-.42 1.55c.12-.67.36-1.5-.09-2a.76.76 0 00-.57-.12c-.18 0-.27.23-.32.41a6.56 6.56 0 00-.29 1.59 7.63 7.63 0 010-1.17.9.9 0 00-.58-.91.79.79 0 00-.84.63 3.41 3.41 0 000 1.15 5.07 5.07 0 01-2.85 4.78c-.51.15-.71-.2-.42-.34a5 5 0 003-5.46c-.05-.34-.24-.73-.58-.72s-.41.26-.47.5 0 .49-.11.73a1.6 1.6 0 00-.19-1c-.1-.17-.27-.34-.46-.3a.67.67 0 00-.3.13 1.38 1.38 0 00-.31 1.08 2 2 0 00-.07-.76.68.68 0 00-.56-.46c-.44 0-.68.49-.75.92a16.56 16.56 0 01-.27 2.23 3 3 0 01-1.73 1.93" class="cls-13"/>
    <path d="M112.44 128a9.4 9.4 0 01-3.17-.11 12.52 12.52 0 00-3 .21 17.17 17.17 0 00-2.94.67 4.79 4.79 0 01-1.63.25 14.55 14.55 0 01-1.46-.18v.37c1.36-.05 3-.18 4.07-1.15a2.9 2.9 0 00.85-2.31c0-.42 0-1.07-.43-1.29a1.88 1.88 0 00-1 0 5.15 5.15 0 01-1.24 0 4.13 4.13 0 01-2.22-1.23 7.12 7.12 0 00-1.1-1.16 4.42 4.42 0 00-5 .47c-1.85 1.61-1.39 4.31-.7 6.36a16.68 16.68 0 004.4 7.28c1.67 1.46 4 2 6.14 2.31 4.55.72 9.72.47 13.8-1.85a10.32 10.32 0 004.48-4.91 11.46 11.46 0 00.82-3.74 16.49 16.49 0 000-3c-.07-.61-.23-1.81-1.12-1.67s-1 1.46-1 2c0 .2.32.25.36 0 .12-.66.5-2.09-.44-2.34a.66.66 0 00-.85.39 5.61 5.61 0 00-.34 1.77h.36c-.1-.67.23-1.47-.33-2a.84.84 0 00-1.28.23c-.43.62-.14 1.47-.19 2.17a5 5 0 01-2.24 3.71 1.78 1.78 0 01-.52.25h-.13c-.14 0-.13 0 0-.08a2.14 2.14 0 01.22-.1 5.66 5.66 0 00.89-.58 5.23 5.23 0 001.91-3.82c0-.56 0-1.67-.6-1.93a.63.63 0 00-.71.22c-.25.31-.2.73-.29 1.1h.36c0-.51-.14-1.58-.86-1.49s-.79.86-.76 1.39a.18.18 0 00.36 0c0-.54-.08-1.32-.76-1.4s-.88.53-1 1a15.52 15.52 0 01-.33 2.45 2.9 2.9 0 01-1.42 1.74c-.22.09 0 .41.18.32a3.27 3.27 0 001.9-2.38c.12-.64.07-1.3.2-1.94 0-.28.17-.67.5-.71.52-.06.52.66.51 1h.36c0-.29 0-.87.34-1 .53-.19.58.82.56 1.09s.31.25.36 0 0-.9.26-1a.36.36 0 01.43.15 1.09 1.09 0 01.1.25 3.61 3.61 0 01.08.66 4.76 4.76 0 01-1.67 3.91 5.51 5.51 0 01-.84.59c-.2.1-.51.17-.62.38-.19.38.29.56.58.53a3 3 0 001.4-.84 5.41 5.41 0 001.71-3.18 5.22 5.22 0 000-1c0-.44-.15-1 .17-1.39s.85 0 .9.45-.06.85 0 1.29c0 .21.35.14.36 0a6.61 6.61 0 01.19-1.26c.08-.3.19-.74.6-.52s.2 1.39.11 1.86h.36a2.77 2.77 0 01.4-1.46c.26-.39.65-.14.76.19a4 4 0 01.19.9 15.3 15.3 0 010 2.79 11.27 11.27 0 01-.71 3.55 9.75 9.75 0 01-4 4.74c-3.69 2.28-8.41 2.67-12.64 2.21a19.08 19.08 0 01-5.67-1.34c-2.4-1.07-4-3.7-5-6a18.91 18.91 0 01-1.22-3.38 6 6 0 010-3.25 3.78 3.78 0 014.37-2.39 3 3 0 011 .36 3.2 3.2 0 01.88.88 4.58 4.58 0 003.79 1.68c.27 0 .83-.18 1 0s.18.51.19.74a3.47 3.47 0 01-.09 1.2 2.72 2.72 0 01-2 1.75 10.2 10.2 0 01-2.4.32.19.19 0 000 .37 6.89 6.89 0 002.93 0 22.57 22.57 0 013-.73 11.91 11.91 0 013.26-.2 8.69 8.69 0 003.05.08.19.19 0 00-.1-.36z"/>
    <path d="M105.55 130.14a4 4 0 001.76-2 4.13 4.13 0 01.5-1.39 1 1 0 011.29-.34 1 1 0 01.25 1.1c-.12.38-.35.72-.5 1.09l.56-1.19a1.25 1.25 0 01.26-.41.72.72 0 01.93.07 1 1 0 01.16 1c-.2.51-.75.8-1 1.27a3.16 3.16 0 00.73-.89 1 1 0 011-.46.74.74 0 01.45.75 1.61 1.61 0 01-.38.85c-.92 1.21-3.09 2-4.53 2.54" class="cls-13"/>
    <path d="M105.63 130.29a4.43 4.43 0 001.29-1.11 3.85 3.85 0 00.7-1.57 1.81 1.81 0 01.48-.93.73.73 0 01.9-.14c.64.48-.08 1.46-.3 2-.08.19.2.37.29.17.19-.39.37-.79.56-1.19.11-.22.23-.45.51-.46a.54.54 0 01.53.34c.35.75-.65 1.31-1 1.84-.09.14.09.33.23.23a2.61 2.61 0 00.65-.75c.21-.32.72-.89 1.11-.45.55.64-.45 1.55-.92 1.91a13.42 13.42 0 01-3.72 1.78c-.2.07-.11.39.09.32a20.11 20.11 0 002.36-1 6.73 6.73 0 002.09-1.44c.45-.51 1-1.57.12-2s-1.39.92-1.95 1.32l.22.22c.29-.43.76-.71 1-1.19a1.09 1.09 0 00-.19-1.26.86.86 0 00-1.11-.06 2 2 0 00-.41.67l-.46 1 .29.17c.27-.63.79-1.3.5-2a1 1 0 00-1.49-.32c-.67.46-.64 1.29-.92 2a3.7 3.7 0 01-1.62 1.7c-.18.1 0 .39.17.29z"/>
    <circle cx="104.61" cy="124.86" r=".67"/>
    <path d="M95.22 125.09l.35-1.12a.41.41 0 00-.21-.49c-.62-.28-1.92-1-2.58-1.44a.32.32 0 00-.47.23l-.67 4.44a.32.32 0 00.48.32l3.1-1.94" class="cls-12"/>
    <path d="M93.14 126.51s2.23 6.51 3.57 8a4.1 4.1 0 001.61-2.36c.19-.76.15-1.56.32-2.33a4.57 4.57 0 011.2-2.22 2.74 2.74 0 00.57-.66 2 2 0 00.08-1.25 1.62 1.62 0 00-1.19-1.57 16.71 16.71 0 00-4-.78"/>
    <path d="M93 126.56a50 50 0 002.62 6.49 7.43 7.43 0 001 1.59.18.18 0 00.23 0 4.47 4.47 0 001.66-2.36c.33-1.2.16-2.46.77-3.59a6.9 6.9 0 011-1.3 1.69 1.69 0 00.45-1.28 3.51 3.51 0 00-.34-1.39 1.75 1.75 0 00-1-.78 16.1 16.1 0 00-4.13-.82c-.23 0-.23.35 0 .37a15 15 0 014.09.82 1.69 1.69 0 011 1.53 1.56 1.56 0 01-.14 1.08 7.16 7.16 0 01-.7.76 5.46 5.46 0 00-1.18 3.2 4.44 4.44 0 01-1.69 3.44h.22a12 12 0 01-1.76-3.31c-.53-1.25-1-2.52-1.47-3.79-.1-.27-.2-.55-.29-.82s-.43-.13-.35.1zM104.07 138.2s.91-.89 1.36-1.35a3.06 3.06 0 011.61-1 5.84 5.84 0 011.61.13 5.56 5.56 0 003.8-.92 15.38 15.38 0 011.49-1 3.33 3.33 0 012.3-.25c1.11.29 2 1.12 3.1 1.44-3.7 2.52-9.94 4.62-15.27 2.95z"/>
    <path d="M104.2 138.33c.5-.49 1-1 1.49-1.48a2.5 2.5 0 011.79-.8c.63 0 1.24.2 1.87.2a5.79 5.79 0 003.08-.92c.5-.32.93-.73 1.44-1a3 3 0 011.79-.41c1.35.11 2.38 1.13 3.64 1.53v-.34c-4.26 2.9-10.08 4.5-15.13 2.95-.23-.07-.32.28-.1.35 4.13 1.27 8.67.42 12.52-1.35a21.13 21.13 0 002.9-1.63.19.19 0 000-.34c-1.13-.35-2.06-1.21-3.23-1.46a3.78 3.78 0 00-3.2.88 5.89 5.89 0 01-3.48 1.4c-.68 0-1.33-.18-2-.2a2.58 2.58 0 00-1.56.51 17.56 17.56 0 00-2 1.88.18.18 0 00.18.23zM127.32 127.88a.19.19 0 000-.37.19.19 0 000 .37z"/>
    <path d="M127.28 127.62c-.79 1.29-2 3.43-2 3.43a3.48 3.48 0 001.91-1.53 2.88 2.88 0 00.14-1.82"/>
    <path d="M127.12 127.53c-.69 1.13-1.35 2.28-2 3.43a.18.18 0 00.21.27 3.62 3.62 0 001.83-1.32 2 2 0 00.4-.95 4.44 4.44 0 000-1.26c0-.23-.4-.24-.37 0a5.32 5.32 0 01.07 1.13 1.6 1.6 0 01-.35.86 3.2 3.2 0 01-1.63 1.19l.21.27c.66-1.15 1.32-2.3 2-3.44.12-.2-.19-.38-.32-.18zM130.33 125.46c-.5.22-.2 1.23 0 1.26a1.82 1.82 0 00.83-.31 1 1 0 00.29-.32l-.46-.46zM112.72 128c.81.38 1.9 2.36.3 3a5.6 5.6 0 01-3.52 0 2.78 2.78 0 002.39-2.68c-.13-.11.83-.32.83-.32z"/>
    <circle cx="110.65" cy="122" r="1.06" class="cls-6"/>
    <path d="M128.09 118.7a9.09 9.09 0 00-6.56-6.28c-.33-.08-.48.43-.14.51a8.56 8.56 0 016.19 5.91.26.26 0 00.51-.14zM126.26 121.37a7.05 7.05 0 00-.64-2.6 3 3 0 00-1.67-1.48c-.32-.11-.46.4-.14.51 1.46.49 1.78 2.24 1.92 3.57a.27.27 0 00.27.26c.13 0 .28-.12.26-.26z"/>
    <circle cx="207.98" cy="140.53" r="1" class="cls-6"/>
    <path d="M222.18 134.19a.26.26 0 00.1.43 6 6 0 012 1.27 4.3 4.3 0 001.48 1.15 3.68 3.68 0 001.77-.09 10.77 10.77 0 015.73.5 4 4 0 001.65.4 9.24 9.24 0 001.8-.65c1.46-.42 3 .51 4.48.45s3.07-1.2 4.65-1c.62.1 1.2.41 1.82.5 1.23.18 1.89-.8 3.08-1.26a44.64 44.64 0 01-7.6-20.27c-.94-7.23-.42-28.69.87-35.86a24.41 24.41 0 012.59-8.13c1.16-2 3.91-5.59 4.68-7.77-8.03-9.27-21.28-9.86-32.4-1.36.7 2.82 5.47 6.74 6.61 8.44a13.51 13.51 0 011.85 5.81c.7 5.33.41 24.84.46 30.22 0 4.83.35 9.68-.28 14.47s-2.19 9.3-5.34 12.75z" class="cls-9"/>
    <path d="M134.13 67.57L13.23 91.78V80.67L134.18 62.1l-.05 5.47zM132.88 79.74L14.1 109.1V97.99l118.83-23.72-.05 5.47z" class="cls-4"/>
    <path d="M19.32 119.34L8.9 122.17a.7.7 0 01-.9-.67l-.55-44.42a5.82 5.82 0 015.11-5.84 5.81 5.81 0 016.52 5.66l.76 41.75a.7.7 0 01-.52.69z" class="cls-4"/>
    <path fill="#fff" stroke="#000" stroke-miterlimit="10" stroke-width=".51" d="M57.67 108.91l-9.14 2.38a.71.71 0 01-.88-.69V71.29A4.9 4.9 0 0152 66.42h0a4.92 4.92 0 015.53 4.78l.67 37a.7.7 0 01-.53.71z"/>
    <path fill="#fff" stroke="#000" stroke-miterlimit="10" stroke-width=".5" d="M83.29 102l-8 2.16a.7.7 0 01-.89-.68V67.61a4.39 4.39 0 013.81-4.35h0a4.39 4.39 0 015 4.27l.66 33.73a.69.69 0 01-.58.74z"/>
    <path fill="#fff" stroke="#000" stroke-miterlimit="10" stroke-width=".42" d="M105.93 95.8l-7.35 2a.71.71 0 01-.89-.69V64.39a4.08 4.08 0 013.61-4h0a4.08 4.08 0 014.55 4l.6 30.79a.72.72 0 01-.52.62z"/>
    <path fill="#fff" stroke="#000" stroke-miterlimit="10" stroke-width=".39" d="M124.55 90.74l-6 1.64a.71.71 0 01-.89-.68V61.4a3.44 3.44 0 013-3.41h0a3.44 3.44 0 013.85 3.34l.56 28.67a.72.72 0 01-.52.74z"/>
    <path fill="#fff" stroke="#000" stroke-miterlimit="10" stroke-width=".38" d="M139.09 86.64l-5.73 1.68a.7.7 0 01-.91-.67V59.44a3.3 3.3 0 012.87-3.27h0a3.3 3.3 0 013.73 3.2l.55 26.57a.71.71 0 01-.51.7z"/>
    <path d="M67.27 38.21a21.88 21.88 0 012.28.46 8.32 8.32 0 016 8.4 8.48 8.48 0 01-7.08 8 9.75 9.75 0 01-1.53.08H22.17a8.5 8.5 0 01-8.2-7 8.3 8.3 0 016.31-9.66 11.62 11.62 0 012.64-.19.71.71 0 00.73-.41 11.57 11.57 0 0111.5-6.65 1.61 1.61 0 001.72-1c3.39-5.39 8.27-8.17 14.67-8 6 .21 10.52 3.09 13.6 8.19a15 15 0 012.12 7.12c-.03.31 0 .5.01.66z" class="cls-1"/>
  </g>
</svg>
