<?xml version="1.0" encoding="utf-8"?>
<!-- Generator: Adobe Illustrator 23.0.3, SVG Export Plug-In . SVG Version: 6.00 Build 0)  -->
<svg version="1.1" id="Layer_1" xmlns="http://www.w3.org/2000/svg" xmlns:xlink="http://www.w3.org/1999/xlink" x="0px" y="0px"
	 viewBox="0 0 24 24" style="enable-background:new 0 0 24 24;" xml:space="preserve">

<linearGradient id="SVGID_1_" gradientUnits="userSpaceOnUse" x1="2.3556" y1="12" x2="22.0395" y2="12">
	<stop  offset="0" style="stop-color:#2183BF"/>
	<stop  offset="1" style="stop-color:#19086D"/>
</linearGradient>
<path class="st0" d="M7,10H5.4c0.3-3.5,3.2-6.3,6.7-6.3c2.8,0,5.4,1.8,6.3,4.4c0.1,0.4,0.6,0.6,1,0.5c0.4-0.1,0.6-0.6,0.5-1
	c-0.6-1.6-1.6-2.9-3-3.9c-1.4-1-3.1-1.5-4.8-1.5C10,2.2,7.9,3,6.3,4.6c-1.5,1.5-2.4,3.6-2.4,5.8C3,10.9,2.4,11.9,2.4,13v2.6
	c0,1.7,1.4,3.1,3.1,3.1H7c0.4,0,0.8-0.3,0.8-0.8v-7.2C7.7,10.3,7.4,10,7,10z M6.2,17.2H5.4c-0.8,0-1.5-0.7-1.5-1.5V13
	c0-0.8,0.7-1.5,1.5-1.5h0.8V17.2z M19,10h-1.5c-0.4,0-0.8,0.3-0.8,0.8V16v2v0.8c0,0.4-0.3,0.8-0.8,0.8h-2.3v0
	c-0.3-0.5-0.8-0.8-1.3-0.8c-0.8,0-1.5,0.7-1.5,1.5s0.7,1.5,1.5,1.5c0.6,0,1.1-0.3,1.3-0.8v0h2.3c1.3,0,2.3-1,2.3-2.3v0H19
	c1.7,0,3.1-1.4,3.1-3.1V13C22,11.3,20.7,10,19,10z M20.5,15.7c0,0.8-0.7,1.5-1.5,1.5h-0.8V16v-4.5H19c0.8,0,1.5,0.7,1.5,1.5V15.7z"
	/>
</svg>
