<?xml version="1.0" encoding="UTF-8" standalone="no"?> <svg id="Layer_1" enable-background="new 0 0 512.159 512.159" height="512" viewBox="0 0 512.159 512.159" width="512" xmlns="http://www.w3.org/2000/svg"><g><g><path d="m255.597 308.286c84.156-.001 152.838-67.475 153.75-152.015.437-40.375-14.663-78.672-42.517-107.834l-10.848 10.36c14.513 15.195 25.18 33.142 31.535 52.609-.664.26-1.044.551-.937.893l-38.017 14.733-63.385-44.681-32.062-.322-9.805-6.346 10.348-59.82c.008 0 .016-.004.025-.004 33.772-.461 66.309 11.236 91.95 33.149l9.746-11.402c-60.861-52.016-151.772-48.456-208.506 8.268-60.09 60.089-60.1 157.357 0 217.457 29.976 29.97 69.349 44.955 108.723 44.955zm95.382-52.904c-.336-.03-.687.033-1.003.247l-15.028-18.643 10.769-39.854 35.089-29.525 11.932.088c-.066.696.255 1.425.798 2.095-3.547 32.67-18.468 62.779-42.557 85.592zm-175.907-213.801 17.632 49.27-2.77 17.5-29.223 12.242-7.614 34.276-36.098-6.992c2.05-43.265 23.877-81.884 58.073-106.296zm-57.965 121.598 47.468 9.193 9.094-40.944 29.771-12.472 4.677-29.547-20.052-56.051c15.442-8.613 32.444-14.206 50.185-16.425l-11.41 65.959 21.775 14.094 31.738.318 66.135 46.619 45.022-17.448c1.755 8.557 2.715 17.331 2.832 26.231l-18.962-.14-42.92 36.114-13.99 51.769 20.32 25.208c-12.843 9.633-26.985 16.747-41.752 21.342l-3.186-35.948-58.715-37.919-31.629 9.572-27.266-28.561-53.104 2.002c-3.31-10.605-5.346-21.656-6.031-32.966zm52.955 46.21 28.968 30.344 33.808-10.231 46.723 30.175 2.66 30.012c-.351.072-.547.518-.637 1.167-64.772 12.249-127.266-22.307-152.869-79.901 3.467-.194-12.878.493 41.347-1.566z"/><path d="m0 499.753h88.164v-188.776h-88.164zm15-173.776h58.164v158.775h-58.164z"/><path d="m256.954 495.458-130.068-36.01h-16.219v15h14.181l133.173 36.869 91.007-38.945-5.902-13.79z"/><path d="m493.429 364.647-35.202-13.003-8.427-17.054-39.979-14.769-62.021 26.522-20.186-20.186h-166.076l-37.82 23.61h-13.051v15h7.701v39.507h15v-42.848l32.468-20.269h155.565l26.292 26.294-.214 29.189h-58.595v-29.19h-15v29.19h-57.464v15h130.949l106.534-45.603 28.723 10.61 9.069 18.361-64.259 27.5-7.502-15.182-13.447 6.646 7.139 14.446-56.7 24.265 5.901 13.79 149.332-63.906zm-130.732 24.036v-27.442l-3.47-3.47 50.998-21.809 28.772 10.629 3.861 7.813z"/></g><g><path d="m307.356 162.103h-15v-15h15zm-45 0h-15v-15h15zm-45 0h-15v-15h15z"/></g><g><g><path d="m36.684 453.115h15v15h-15z"/></g><g><path d="m36.684 342.615h15v15h-15z"/></g></g></g></svg>