<svg fill="white" id="Capa_1" enable-background="new 0 0 510 510" height="512" viewBox="0 0 510 510" width="512" xmlns="http://www.w3.org/2000/svg"><g><path d="m168.848 265.569-.324.384c-7.242 8.576-12.742 18.391-16.334 28.867h205.75c-3.527-10.44-8.942-20.233-16.083-28.802-17.132-20.559-42.307-32.35-69.067-32.35h-35.251c-26.535 0-51.572 11.627-68.691 31.901z"/><path d="m255.743 99.82c-28.631 0-51.924 23.293-51.924 51.925 0 28.631 23.293 51.924 51.924 51.924 28.632 0 51.925-23.293 51.925-51.924 0-28.632-23.293-51.925-51.925-51.925z"/><path d="m120.913 294.82c4.422-17.626 12.818-34.165 24.687-48.219l.323-.384c14.134-16.738 32.315-29.051 52.509-36.008-15.174-14.878-24.612-35.585-24.612-58.464 0-45.174 36.751-81.925 81.924-81.925 45.174 0 81.925 36.751 81.925 81.925 0 23.031-9.567 43.859-24.919 58.757 20.094 7.09 38.143 19.497 52.155 36.311 11.683 14.02 19.941 30.487 24.277 48.007h87.203c2.404-13.086 3.617-26.441 3.617-40 0-58.765-22.884-114.011-64.437-155.563s-96.8-64.437-155.565-64.437h-10c-58.765 0-114.011 22.884-155.563 64.437s-64.437 96.798-64.437 155.563c0 13.559 1.213 26.914 3.617 40z"/><path d="m468.623 324.82s-427.168.241-427.127.36h-41.496v150h510v-150s-41.417-.24-41.377-.36zm-348.623 90.36h-30v-30h30zm75 0h-30v-30h30zm75 0h-30v-30h30zm75 0h-30v-30h30zm75 0h-30v-30h30z"/></g></svg>