<svg fill="#6701ff" height="512" viewBox="0 0 64 64" width="512" xmlns="http://www.w3.org/2000/svg"><g id="Mailbox"><path d="m18 26.289a3 3 0 0 1 -4 0l-1.054-.944-7.446 6.655h21l-7.448-6.655z"/><path d="m28 17.342-7.445 6.662 7.445 6.652z"/><path d="m11.618 34-2.276 4.553a1 1 0 0 0 .894 1.447h19.528a1 1 0 0 0 .894-.553l2.724-5.447z"/><path d="m34 32v-17a11 11 0 0 0 -21.949-1h16.949a1 1 0 0 1 1 1v17z"/><path d="m15.333 24.8a1 1 0 0 0 1.334 0l9.833-8.8h-21z"/><path d="m4 30.656 7.445-6.652-7.445-6.662z"/><path d="m60 15a11.013 11.013 0 0 0 -11-11h-19.076a12.915 12.915 0 0 1 6.076 11v17h24z"/><path d="m41 34h-5.382l-2.618 5.236v20.764h8z"/></g></svg>